<?xml version="1.0" standalone="no"?><!DOCTYPE svg PUBLIC "-//W3C//DTD SVG 1.1//EN" "http://www.w3.org/Graphics/SVG/1.1/DTD/svg11.dtd"><svg t="1537430320035" class="icon" style="" viewBox="0 0 1024 1024" version="1.1" xmlns="http://www.w3.org/2000/svg" p-id="4894" xmlns:xlink="http://www.w3.org/1999/xlink" width="16" height="16"><defs><style type="text/css"></style></defs><path d="M608 256H96c-17.7 0-32-14.3-32-32s14.3-32 32-32h512c17.7 0 32 14.3 32 32s-14.3 32-32 32zM608 544H96c-17.7 0-32-14.3-32-32s14.3-32 32-32h512c17.7 0 32 14.3 32 32s-14.3 32-32 32zM608 832H96c-17.7 0-32-14.3-32-32s14.3-32 32-32h512c17.7 0 32 14.3 32 32s-14.3 32-32 32zM800 64.5c-17.7 0-32 14.3-32 32v832c0 17.7 14.3 32 32 32s32-14.3 32-32v-832c0-17.7-14.3-32-32-32z" fill="#727171" p-id="4895"></path><path d="M777.4 73.4c-12.5 12.5-12.5 32.8 0 45.3L896 237.3c12.5 12.5 32.8 12.5 45.3 0s12.5-32.8 0-45.3L822.6 73.4c-12.5-12.5-32.7-12.5-45.2 0z" fill="#727171" p-id="4896"></path></svg>