<?xml version="1.0" standalone="no"?><!DOCTYPE svg PUBLIC "-//W3C//DTD SVG 1.1//EN" "http://www.w3.org/Graphics/SVG/1.1/DTD/svg11.dtd"><svg t="1538134036473" class="icon" style="" viewBox="0 0 1024 1024" version="1.1" xmlns="http://www.w3.org/2000/svg" p-id="2423" xmlns:xlink="http://www.w3.org/1999/xlink" width="16" height="16"><defs><style type="text/css"></style></defs><path d="M440.5 403v526c0 15.5-12.5 28-28 28s-28-12.5-28-28V403c0-15.5 12.5-28 28-28s28 12.5 28 28z" fill="" p-id="2424"></path><path d="M412.5 403c-92.6 0-168-75.4-168-168 0-15.5 12.5-28 28-28s28 12.5 28 28c0 61.8 50.2 112 112 112s112-50.2 112-112-50.2-112-112-112c-15.5 0-28-12.5-28-28s12.5-28 28-28c92.6 0 168 75.4 168 168s-75.4 168-168 168zM290.5 194.2c-4.7 0-9.4-1.2-13.7-3.6-13.5-7.6-18.3-24.7-10.7-38.1 12-21.3 28.9-40.1 48.9-54.3 12.6-9 30.1-6.1 39.1 6.5s6.1 30.1-6.5 39.1c-13.3 9.5-24.6 22-32.6 36.3-5.2 9-14.7 14.1-24.5 14.1zM435.5 466h161c12.7 0 23 10.3 23 23s-10.3 23-23 23H435.5c-12.7 0-23-10.3-23-23s10.3-23 23-23zM435.5 620h322c12.7 0 23 10.3 23 23s-10.3 23-23 23H435.5c-12.7 0-23-10.3-23-23s10.3-23 23-23zM407.5 774h189c12.7 0 23 10.3 23 23s-10.3 23-23 23H407.5c-12.7 0-23-10.3-23-23s10.3-23 23-23z" fill="" p-id="2425"></path></svg>