<?xml version="1.0" standalone="no"?><!DOCTYPE svg PUBLIC "-//W3C//DTD SVG 1.1//EN" "http://www.w3.org/Graphics/SVG/1.1/DTD/svg11.dtd"><svg t="1537253683404" class="icon" style="" viewBox="0 0 1024 1024" version="1.1" xmlns="http://www.w3.org/2000/svg" p-id="2958" xmlns:xlink="http://www.w3.org/1999/xlink" width="32" height="32"><defs><style type="text/css"></style></defs><path d="M592 448l-16 0 0-192c0-105.856-86.144-192-192-192l-128 0c-105.856 0-192 86.144-192 192l0 192-16 0c-26.4 0-48 21.6-48 48l0 480c0 26.4 21.6 48 48 48l544 0c26.4 0 48-21.6 48-48l0-480c0-26.4-21.6-48-48-48zM192 256c0-35.296 28.704-64 64-64l128 0c35.296 0 64 28.704 64 64l0 192-256 0 0-192z" p-id="2959"></path></svg>