<?xml version="1.0" standalone="no"?><!DOCTYPE svg PUBLIC "-//W3C//DTD SVG 1.1//EN" "http://www.w3.org/Graphics/SVG/1.1/DTD/svg11.dtd"><svg t="1538099142463" class="icon" style="" viewBox="0 0 1097 1024" version="1.1" xmlns="http://www.w3.org/2000/svg" p-id="5977" xmlns:xlink="http://www.w3.org/1999/xlink" width="17.140625" height="16"><defs><style type="text/css"></style></defs><path d="M443.302291 966.944036c-129.140984 0-258.280677 0.068378-387.421661-0.041285-38.183528-0.030964-52.831986-13.959514-49.597559-51.535377 12.768698-148.342411 99.588616-291.000384 233.174196-331.356539 26.754014-8.085423 55.814832-11.087621 83.911901-11.672063 74.982715-1.562382 150.086705 1.499164 225.020394-0.98052 132.523779-4.385248 222.176885 61.957276 281.030041 172.650285 23.920827 44.989113 33.955679 97.574679 48.438996 147.247067 4.919374 16.872691 21.020551 33.091272 1.575284 53.977646-13.68084 14.691034-26.178604 22.032035-45.863841 21.959786-130.08925-0.483809-260.1785-0.249001-390.267751-0.249z m354.019461-80.205277c-9.414286-53.797024-28.458314-100.957474-59.62725-142.371558-40.349703-53.611242-90.845212-91.619308-161.512348-92.632082-82.499178-1.180495-165.011257-1.71333-247.520756-1.997165-63.228082-0.216747-116.314229 23.716982-158.652067 70.445228-42.666828 47.088201-68.368073 102.261824-79.142186 166.555577h706.454607zM446.909574 56.876632c108.449424-4.360735 246.385417 80.126577 248.592878 246.40735 1.786869 134.602224-112.695335 245.163637-247.411093 245.540364-140.713705 0.392208-256.622824-111.509679-255.821635-247.378839 0.856665-145.092502 123.198514-243.496753 254.63985-244.568875z m1.337895 82.697863c-109.504773 0.636048-162.756061 86.314176-168.659826 162.581889-6.474015 83.598393 81.139351 163.534026 167.987653 163.186973 89.774381-0.354794 163.259222-74.749196 162.216774-164.226841-1.039868-88.924167-73.371307-161.255606-161.544601-161.542021zM922.674831 410.399382c44.217598 0 88.439067-0.156109 132.656665 0.056767 27.12171 0.134176 41.602447 13.145424 41.795971 36.768224 0.187073 22.906762-15.008412 38.61186-41.105736 38.784741-90.167879 0.597343-180.34479 0.64766-270.510089-0.045155-25.33484-0.193524-41.852738-17.528092-41.332804-39.329188 0.521224-21.852703 17.192651-36.067668 43.238368-36.179912 45.084585-0.197394 90.17046-0.055477 135.257625-0.055477zM929.667489 279.247041c-42.479755 0.00258-84.9608 0.223197-127.439265-0.08257-25.208405-0.181912-42.297843-15.688326-42.331386-37.395241-0.029674-21.626925 17.208133-38.151274 42.128832-38.263517 84.95951-0.378016 169.92031-0.41027 254.87982 0.027093 25.132285 0.129016 40.850285 16.510157 40.219397 39.42466-0.612825 22.215237-15.161941 35.932201-40.018133 36.174751-42.475884 0.416721-84.95822 0.110954-127.439265 0.114824zM951.188621 690.198611c-34.70268-0.006451-69.414392 0.420592-104.10675-0.152238-24.285941-0.397369-39.947174-15.537377-39.929112-36.877888 0.018062-20.784452 16.401784-36.692104 40.282615-36.841762 70.271057-0.445105 140.549854-0.49026 210.822202 0.037414 25.459986 0.190943 39.029871 14.156908 38.881503 37.121727-0.145788 22.951918-13.803405 36.247-39.236297 36.596633-35.565796 0.48639-71.141914 0.123855-106.714161 0.116114z" p-id="5978"></path></svg>