<?xml version="1.0" standalone="no"?><!DOCTYPE svg PUBLIC "-//W3C//DTD SVG 1.1//EN" "http://www.w3.org/Graphics/SVG/1.1/DTD/svg11.dtd"><svg t="1537253415049" class="icon" style="" viewBox="0 0 1024 1024" version="1.1" xmlns="http://www.w3.org/2000/svg" p-id="2015" xmlns:xlink="http://www.w3.org/1999/xlink" width="32" height="32"><defs><style type="text/css"></style></defs><path d="M768 0H256a96 96 0 0 0-96 96v832a96 96 0 0 0 96 96h512c52.992 0 96-43.008 96-96V96a96 96 0 0 0-96-96z m32 928c0 17.632-14.368 32-32 32H256a32 32 0 0 1-32-32v-64.128h576V928z m0-96.128H224V192h576v639.872zM800 160H224V96a32 32 0 0 1 32-32h512c17.632 0 32 14.336 32 32v64z" fill="#333333" p-id="2016"></path><path d="M576 112a16 16 0 0 1-16 16h-96a15.968 15.968 0 1 1 0-32h96a16 16 0 0 1 16 16zM544 911.872c0 8.8-7.2 16-16 16h-32a16 16 0 1 1 0-32h32a16 16 0 0 1 16 16z" fill="#333333" p-id="2017"></path></svg>