<?xml version="1.0" standalone="no"?><!DOCTYPE svg PUBLIC "-//W3C//DTD SVG 1.1//EN" "http://www.w3.org/Graphics/SVG/1.1/DTD/svg11.dtd"><svg t="1537517449385" class="icon" style="" viewBox="0 0 1025 1024" version="1.1" xmlns="http://www.w3.org/2000/svg" p-id="2982" xmlns:xlink="http://www.w3.org/1999/xlink" width="16.015625" height="16"><defs><style type="text/css"></style></defs><path d="M895.568 65.267H612.945c-35.402 0-64.203 29.073-64.203 64.808v347.259H895.568c35.428 0 64.25-29.074 64.25-64.81V130.075c0-35.735-28.823-64.808-64.25-64.808z m15.104 347.257c0 8.638-6.776 15.664-15.104 15.664h-297.68V130.075c0-8.636 6.755-15.662 15.057-15.662h282.622c8.328 0 15.104 7.026 15.104 15.662v282.45zM65.468 130.075v282.45c0 35.736 28.823 64.81 64.251 64.81H476.545v-347.26c0-35.735-28.801-64.808-64.203-64.808H129.72c-35.427 0-64.25 29.073-64.25 64.808z m49.147 0c0-8.636 6.776-15.662 15.104-15.662h282.623c8.302 0 15.056 7.026 15.056 15.662v298.113H129.72c-8.328 0-15.104-7.027-15.104-15.664V130.075zM959.819 894.775V612.326c0-35.736-28.823-64.81-64.251-64.81H548.742V894.776c0 35.736 28.801 64.81 64.203 64.81h282.622c35.428 0 64.252-29.073 64.252-64.81z m-49.147 0c0 8.637-6.776 15.663-15.104 15.663H612.945c-8.302 0-15.056-7.026-15.056-15.663V596.663h297.678c8.328 0 15.104 7.027 15.104 15.663v282.45zM129.72 959.585h282.622c35.402 0 64.203-29.073 64.203-64.809v-347.26H129.719c-35.428 0-64.25 29.075-64.25 64.81v282.45c0 35.736 28.823 64.81 64.25 64.81z m-15.105-347.259c0-8.637 6.776-15.663 15.104-15.663h297.678v298.112c0 8.637-6.754 15.663-15.056 15.663H129.72c-8.328 0-15.104-7.026-15.104-15.663V612.326z" p-id="2983"></path></svg>