<?xml version="1.0" standalone="no"?><!DOCTYPE svg PUBLIC "-//W3C//DTD SVG 1.1//EN" "http://www.w3.org/Graphics/SVG/1.1/DTD/svg11.dtd"><svg t="1537510743968" class="icon" style="" viewBox="0 0 1024 1024" version="1.1" xmlns="http://www.w3.org/2000/svg" p-id="2590" xmlns:xlink="http://www.w3.org/1999/xlink" width="16" height="16"><defs><style type="text/css"></style></defs><path d="M633.92 568.32a276.352 276.352 0 0 0 134.4-236.224 262.4 262.4 0 1 0-524.224 0 276.416 276.416 0 0 0 134.4 236.224 390.4 390.4 0 0 0-249.6 366.144 30.464 30.464 0 0 0 60.928 0A327.744 327.744 0 0 1 512 603.712a331.648 331.648 0 0 1 323.072 330.752 30.464 30.464 0 0 0 60.928 0A420.224 420.224 0 0 0 633.6 568.32zM304.768 332.096A207.296 207.296 0 1 1 512 544.64a208.64 208.64 0 0 1-207.232-212.544z m0 0" p-id="2591"></path></svg>